<?xml version="1.0" encoding="UTF-8" standalone="no"?><!DOCTYPE svg PUBLIC "-//W3C//DTD SVG 1.1//EN" "http://www.w3.org/Graphics/SVG/1.1/DTD/svg11.dtd"><svg width="100%" height="100%" viewBox="0 0 47 47" version="1.1" xmlns="http://www.w3.org/2000/svg" xmlns:xlink="http://www.w3.org/1999/xlink" xml:space="preserve" xmlns:serif="http://www.serif.com/" style="fill-rule:evenodd;clip-rule:evenodd;stroke-linejoin:round;stroke-miterlimit:2;"><path d="M8.267,-0l30.2,-0c4.55,-0 8.266,3.717 8.266,8.267l0,30.204c0,4.546 -3.716,8.266 -8.266,8.266l-30.2,0c-4.55,0 -8.267,-3.72 -8.267,-8.266l-0,-30.204c-0,-4.55 3.717,-8.267 8.267,-8.267" style="fill:#19323a;"/><path d="M7.227,21.207l14.067,0l-0,4.325l-14.067,0l0,-4.325Zm0,-5.212l14.067,-0l-0,4.325l-14.067,-0l0,-4.325Zm0,10.425l14.067,-0l-0,4.325l-14.067,-0l0,-4.325Z" style="fill:#038dcd;"/><path d="M10.735,8.225l-0,5.755l12.721,-0c5.191,-0 9.083,3.85 9.083,9.433c0,5.537 -3.721,9.342 -8.779,9.342l-13.025,-0l-0,5.758l12.587,-0c9.563,-0 16.184,-6.233 16.184,-15.146c-0,-8.954 -6.534,-15.142 -15.921,-15.142l-12.85,0Z" style="fill:#fff;"/></svg>