<?xml version="1.0" encoding="utf-8"?>
<!-- Generator: Adobe Illustrator 27.1.1, SVG Export Plug-In . SVG Version: 6.00 Build 0)  -->
<svg version="1.1" id="Layer_1" xmlns="http://www.w3.org/2000/svg" xmlns:xlink="http://www.w3.org/1999/xlink" x="0px" y="0px"
	 viewBox="0 0 300 228.7" style="enable-background:new 0 0 300 228.7;" xml:space="preserve">
<style type="text/css">
	.st0{fill:#F68E28;}
</style>
<path class="st0" d="M33.2,195.7l-6,7c-2.1-2.6-4.6-4-7.7-4c-2.9,0-5.3,1-7.1,2.9c-1.7,1.9-2.6,4.5-2.6,7.6c0,3.1,0.9,5.6,2.6,7.6
	c1.8,2,4.1,2.9,7.1,2.9c3,0,5.6-1.3,7.7-4l6,7c-3.5,3.8-8,5.7-13.7,5.7s-10.3-1.8-14-5.5c-3.7-3.7-5.5-8.3-5.5-13.9
	c0-5.5,1.8-10.2,5.5-13.8c3.7-3.7,8.3-5.5,14-5.5C25.4,190,29.4,191.7,33.2,195.7"/>
<rect x="36.4" y="189.4" class="st0" width="9.3" height="38.6"/>
<path class="st0" d="M73.9,205.4c2.6,2.5,4,5.7,4,9.6c0,3.9-1.3,7.1-4,9.7c-2.6,2.5-6,3.8-10,3.8c-4,0-7.4-1.3-10-3.8
	c-2.6-2.5-3.9-5.7-3.9-9.7c0-3.9,1.3-7.1,4-9.6c2.6-2.6,5.9-3.9,10-3.9C67.9,201.6,71.3,202.9,73.9,205.4 M63.9,220.4
	c2.6,0,4.5-2.3,4.5-5.3c0-3.1-1.9-5.4-4.5-5.4c-2.6,0-4.5,2.3-4.5,5.4C59.4,218.1,61.3,220.4,63.9,220.4"/>
<path class="st0" d="M106.8,202.1V228h-8.3l-0.5-2.6c-1.4,2.1-3.8,3.1-7,3.1c-6.1,0-9.4-4.4-9.4-11.7v-14.7H91v14.2
	c0,2.3,1,3.5,2.8,3.5c1.6,0,2.7-0.8,3.6-2.2v-15.4L106.8,202.1L106.8,202.1z"/>
<path class="st0" d="M138.2,189.4V228h-8.3l-0.5-2.6c-1.5,2.1-3.8,3.2-7.1,3.2c-3.3,0-6-1.3-8.1-3.8c-2.1-2.5-3.1-5.8-3.1-9.7
	c0-3.9,1.1-7.2,3.1-9.7c2.1-2.5,4.8-3.8,8.1-3.8c2.9,0,5.1,0.9,6.6,2.5v-14.7L138.2,189.4L138.2,189.4z M120.5,215
	c0,3.4,1.7,5.4,4.3,5.4c1.7,0,3.1-0.8,4.1-2.4v-5.9c-1-1.6-2.3-2.4-4.1-2.4C122.2,209.7,120.5,211.6,120.5,215"/>
<path class="st0" d="M148.3,228h-3v-38.6h3v16.5c1-1.6,2.3-2.9,4-3.7c1.7-0.8,3.5-1.2,5.4-1.2c2,0,3.7,0.4,5.2,1.1
	c1.5,0.8,2.7,1.8,3.7,3c1,1.3,1.7,2.8,2.2,4.4c0.5,1.7,0.7,3.5,0.7,5.3c0,1.9-0.2,3.7-0.7,5.4c-0.4,1.7-1.1,3.2-2.1,4.4
	c-1,1.2-2.2,2.2-3.7,2.9c-1.5,0.7-3.3,1.1-5.4,1.1c-0.8,0-1.7-0.1-2.6-0.4c-0.9-0.2-1.7-0.6-2.6-1c-0.8-0.4-1.6-1-2.3-1.6
	c-0.7-0.7-1.3-1.4-1.7-2.3h-0.1L148.3,228L148.3,228z M148.3,214.7c0,1.6,0.2,3.1,0.6,4.4c0.4,1.4,1,2.6,1.7,3.6
	c0.7,1,1.7,1.8,2.8,2.4c1.1,0.6,2.4,0.9,3.8,0.9c1.3,0,2.5-0.2,3.6-0.7c1.1-0.5,2-1.1,2.8-2c0.8-0.9,1.4-2,1.9-3.2
	c0.5-1.3,0.7-2.7,0.7-4.4c0.1-1.7-0.1-3.2-0.4-4.6c-0.3-1.4-0.9-2.7-1.6-3.8c-0.7-1.1-1.7-1.9-2.9-2.6c-1.2-0.6-2.5-0.9-4.1-0.9
	c-1.4,0-2.6,0.3-3.7,0.9c-1.1,0.6-2,1.4-2.8,2.4c-0.8,1-1.3,2.2-1.8,3.5C148.5,211.8,148.3,213.3,148.3,214.7"/>
<path class="st0" d="M178.3,215.6c0,1.4,0.2,2.8,0.6,4c0.4,1.3,0.9,2.4,1.7,3.3c0.7,0.9,1.7,1.7,2.8,2.2c1.1,0.6,2.4,0.8,3.9,0.8
	c2,0,3.7-0.5,5.1-1.6c1.4-1,2.4-2.5,2.8-4.5h3.4c-0.4,1.3-0.9,2.4-1.5,3.5c-0.6,1.1-1.4,2-2.3,2.8c-0.9,0.8-2,1.4-3.3,1.9
	c-1.3,0.4-2.7,0.7-4.4,0.7c-2.1,0-3.9-0.4-5.4-1.1c-1.5-0.7-2.8-1.7-3.8-2.9c-1-1.2-1.7-2.7-2.2-4.4c-0.5-1.7-0.7-3.5-0.7-5.4
	c0-1.9,0.3-3.7,0.8-5.4c0.6-1.7,1.4-3.2,2.4-4.4c1-1.3,2.3-2.3,3.8-3c1.5-0.7,3.2-1.1,5.1-1.1c3.6,0,6.5,1.2,8.5,3.7
	c2.1,2.5,3.1,6.1,3,10.8H178.3L178.3,215.6z M195.5,213c0-1.3-0.2-2.5-0.5-3.6c-0.4-1.1-0.9-2.1-1.6-2.9c-0.7-0.8-1.6-1.5-2.6-2
	c-1.1-0.5-2.3-0.7-3.6-0.7c-1.4,0-2.6,0.3-3.6,0.8c-1,0.5-1.9,1.2-2.6,2c-0.7,0.8-1.3,1.8-1.8,2.9c-0.4,1.1-0.7,2.3-0.9,3.6
	L195.5,213L195.5,213z"/>
<path class="st0" d="M208.4,228h-3v-26.3h3v4.9h0.1c0.8-2.1,1.9-3.6,3.3-4.4c1.3-0.8,3.1-1.2,5.3-1.2v3.3c-1.7,0-3.2,0.2-4.3,0.8
	c-1.1,0.6-2,1.4-2.7,2.3c-0.7,1-1.1,2.1-1.4,3.5c-0.3,1.3-0.4,2.7-0.4,4.2L208.4,228L208.4,228z"/>
<path class="st0" d="M225.8,228h-3v-26.3h3v4.9h0.1c0.8-2.1,1.9-3.6,3.3-4.4c1.3-0.8,3.1-1.2,5.3-1.2v3.3c-1.7,0-3.2,0.2-4.3,0.8
	c-1.1,0.6-2,1.4-2.7,2.3c-0.7,1-1.1,2.1-1.4,3.5c-0.3,1.3-0.4,2.7-0.4,4.2L225.8,228L225.8,228z"/>
<rect x="240.5" y="201.7" class="st0" width="3" height="26.3"/>
<path class="st0" d="M253.7,215.6c0,1.4,0.2,2.8,0.6,4c0.4,1.3,0.9,2.4,1.6,3.3c0.7,0.9,1.6,1.7,2.8,2.2c1.1,0.6,2.4,0.8,3.9,0.8
	c2,0,3.7-0.5,5.1-1.6c1.4-1,2.4-2.5,2.8-4.5h3.4c-0.4,1.3-0.9,2.4-1.5,3.5c-0.6,1.1-1.4,2-2.3,2.8c-0.9,0.8-2,1.4-3.3,1.9
	c-1.3,0.4-2.7,0.7-4.4,0.7c-2.1,0-3.9-0.4-5.4-1.1c-1.5-0.7-2.8-1.7-3.8-2.9c-1-1.2-1.7-2.7-2.2-4.4c-0.5-1.7-0.7-3.5-0.7-5.4
	c0-1.9,0.3-3.7,0.8-5.4c0.6-1.7,1.4-3.2,2.4-4.4c1-1.3,2.3-2.3,3.8-3c1.5-0.7,3.2-1.1,5.1-1.1c3.6,0,6.5,1.2,8.5,3.7
	c2.1,2.5,3.1,6.1,3,10.8H253.7L253.7,215.6z M270.9,213c0-1.3-0.2-2.5-0.5-3.6c-0.4-1.1-0.9-2.1-1.6-2.9c-0.7-0.8-1.6-1.5-2.6-2
	c-1.1-0.5-2.3-0.7-3.6-0.7c-1.4,0-2.6,0.3-3.6,0.8c-1,0.5-1.9,1.2-2.6,2c-0.7,0.8-1.3,1.8-1.8,2.9c-0.4,1.1-0.7,2.3-0.9,3.6
	L270.9,213L270.9,213z"/>
<path class="st0" d="M282.4,219.8c0.5,2.3,1.3,3.9,2.6,4.8c1.2,0.9,3,1.4,5.3,1.4c1.1,0,2.1-0.1,2.9-0.4c0.8-0.3,1.5-0.6,2-1.1
	c0.5-0.5,0.9-1,1.2-1.5c0.3-0.6,0.4-1.2,0.4-1.8c0-1.3-0.4-2.2-1.2-2.9c-0.8-0.6-1.9-1.1-3.1-1.5c-1.3-0.4-2.6-0.7-4.1-0.9
	c-1.5-0.3-2.8-0.6-4.1-1.1c-1.3-0.5-2.3-1.2-3.1-2.2c-0.8-0.9-1.2-2.3-1.2-4c0-2.2,0.8-4,2.4-5.4c1.6-1.4,3.9-2.1,6.8-2.1
	c2.8,0,5.2,0.6,6.9,1.9c1.8,1.3,2.9,3.4,3.2,6.4h-3.1c-0.3-2-1-3.5-2.3-4.3c-1.3-0.8-2.9-1.2-4.8-1.2c-1.9,0-3.4,0.4-4.4,1.2
	c-1,0.8-1.5,1.9-1.5,3.3c0,1.2,0.4,2.1,1.2,2.7c0.8,0.6,1.9,1.1,3.1,1.5c1.3,0.4,2.6,0.7,4.1,1s2.8,0.7,4.1,1.3
	c1.3,0.6,2.3,1.3,3.1,2.3c0.8,0.9,1.2,2.3,1.2,4c0,1.3-0.3,2.4-0.8,3.3c-0.5,1-1.3,1.8-2.2,2.4c-0.9,0.6-2.1,1.1-3.4,1.4
	c-1.3,0.3-2.7,0.5-4.3,0.5c-1.6,0-2.9-0.2-4.1-0.7c-1.2-0.5-2.2-1.1-3.1-1.9c-0.8-0.8-1.5-1.8-2-2.8c-0.5-1.1-0.7-2.3-0.8-3.5
	L282.4,219.8L282.4,219.8z"/>
<path class="st0" d="M244.2,194.2c0,1.2-1,2.2-2.2,2.2s-2.2-1-2.2-2.2c0-1.2,1-2.2,2.2-2.2C243.2,192,244.2,193,244.2,194.2"/>
<path class="st0" d="M192.7,130.8c-3.6-0.9-5.6-1.9-7.7-3.3c-0.6,3.2-2.4,11.6-2.4,11.6c-0.5-3.7-1.5-10.4-2.1-14.1
	c-0.3-1.7-0.6-3.3-1-5c3.6,5,8.4,8.2,14.2,9.8c5.7,1.6,11.4,2.9,17.1,4.1c3.4,0.7,6.8,0.9,10.7,1.5c0,0-17.5-10.7-19-20.1
	c-0.4-2.3-0.7-3.8-1.3-5.6c-1.8-6.1-9.6-9.5-15.3-6.6c1.4,8.8,6.2,15.5,13.2,20.8c-8.5-3-15.3-7.9-19.5-17.1
	c-0.8,2.5-1.2,4.5-1.7,6.1c-1.2-0.3-5.2,1.7-5.8,7.6c-1.3,12.6,5.2,22.1,12.9,32.1C188.1,144.8,190.4,137.9,192.7,130.8"/>
<path class="st0" d="M84.6,53.7c1.5-5.3,3.9-9.5,7.4-13l0.2-0.2c1.5-1.3,3-2.4,4.5-3.3c-0.1-0.8-0.2-1.7-0.3-2.8l-0.1-1.3
	c0.3-11.8,6.4-22.3,16.4-28.2c9.8-5.8,21.8-6.2,32.1-1c9.4-5.1,20.7-5.2,30.5-0.2c10,5.1,16.6,14.5,17.9,25.2c0.1,0.5,0.1,1,0.1,1.5
	c13.5,5.3,22.1,20.5,20.1,35.8c-0.7,5.6-5.6,27.9-33.2,26.5c-6.4,26-23.6,25.2-33.2,24.2c-6.7,6.2-13.4,11.7-28.3,6.9
	c-5.3-1.7-12.8-7.9-16.3-16.2c-2.4-5.7-2.6-11.5-0.5-16.8c-4.4-1.1-8.4-3.6-11.6-7.2c-5.1-5.8-7.8-13.9-7.1-21.6
	C83.5,59,83.9,56.2,84.6,53.7 M99.3,48.2c-3.4,3.3-5.1,8-5.7,14.7c-0.4,4.9,1.3,10.2,4.5,13.8c1.7,1.9,4.6,4.2,8.8,4.4
	c0,0,6.7-0.5,8.4,2.8c1.7,3.2-0.6,5.9-1.3,6.8c-0.6,0.7-1.3,1.5-1.9,2.9c-1.5,3.1-1.5,6.5,0,10c2.4,5.5,7.6,9.6,9.9,10.3l0,0
	c13.7,6.2,22-8.3,22-8.3s22.3,12,29.9-21.9l8.9-0.3c13.9-1.8,19-8.5,20.4-18.6c1.2-9.3-3.7-21.2-14.1-24.9c-4.2-1.5-5.8-3.5-6.1-9.9
	c-0.8-7.2-5.4-13.6-12.2-17.1c-6.8-3.5-14.7-3.4-21,0.2c-3,1.7-6.1,1.8-9.3,0.1c-7.1-3.7-15.4-3.5-22.2,0.5
	c-6.6,3.9-11.6,12.2-11.2,18.6c0.3,6.8,2,11.1,2,11.1S102.8,44.8,99.3,48.2"/>
</svg>
